<?xml version="1.0" encoding="utf-8"?>
<!-- Generator: Adobe Illustrator 19.2.0, SVG Export Plug-In . SVG Version: 6.00 Build 0)  -->
<svg version="1.1" id="Layer_1" xmlns="http://www.w3.org/2000/svg" xmlns:xlink="http://www.w3.org/1999/xlink" x="0px" y="0px"
	 viewBox="0 0 494.7 465.7" style="enable-background:new 0 0 494.7 465.7;" xml:space="preserve">
<title>SnapchatGhost</title>
<g id="AJJHk3.tif">
	<path d="M248.9,448c-25,0-48.5-14.4-62.9-24.1c-23.3-15.8-47.6-22.1-75.3-16.6c-18.3,3.6-20.7,2-25.3-16
		c-2.1-8.1-6.5-12.5-14.8-14.2c-9.2-1.9-18.1-5.1-27.1-7.7c-10.1-2.9-24.9-8.5-24.9-18.9c0-6.7,13.3-11,18.8-12.6
		c41-12.3,66.6-40.8,83.5-78.6c4-9.1,1.8-15.2-7.1-19.9c-4.6-2.5-9.9-3.9-14.7-6.2c-8.2-3.9-16.9-7.2-24.3-12.3
		c-11.4-7.9-10.3-22.6,2.3-28.4c5.9-2.7,13.6-2.2,20.4-1.9c4.2,0.2,8.3,2.8,12.6,4c12.5,3.5,15.5,1,15.3-11.8
		c-0.2-19.8-1.1-39.6-0.1-59.3c2.2-44.1,24.9-74.6,64.7-92.6c26.4-12,54.1-16,82.9-11.3c48.2,7.8,99.9,44.4,101.2,114.2
		c0.3,16.8-1.1,33.6-1.7,50.4c-0.4,11.1,3.1,13.4,13.8,10.4c7-2,14.3-3.9,21.4-3.8c13.5,0.1,21.7,5.5,23.3,13.6
		c1.7,8.1-2.7,14.6-15.5,21c-10,5-20.6,8.7-30.6,13.8c-9.5,4.8-11.9,10.7-7.6,20.5c15.8,36,39.9,63.8,78.3,76.9
		c6.6,2.3,20.3,5.4,20.3,12.2c0,5.6-9.6,14.8-15.1,17.3c-9.3,4.4-19.1,7.8-29.1,9.9c-11.6,2.3-17.9,7.8-20.3,19.7
		c-2.5,12.3-7,14.5-19.8,12.4c-2.6-0.4-5.2-0.9-7.8-1.3c-23-3.9-44.8-0.5-64.1,12.7C302.4,431.1,274.8,448,248.9,448z"/>
</g>
</svg>
